<svg width="95" height="95" viewBox="0 0 95 95" fill="none" xmlns="http://www.w3.org/2000/svg">
<path d="M20.7812 11.875C20.2301 11.8753 19.6898 12.029 19.2211 12.319C18.7523 12.6089 18.3736 13.0237 18.1272 13.5167L6.25219 37.2667C5.99661 37.7774 5.89373 38.3509 5.95586 38.9185C6.018 39.4861 6.24251 40.0238 6.6025 40.467L45.1963 87.967C45.4746 88.3095 45.8258 88.5856 46.2244 88.7753C46.6229 88.9649 47.0587 89.0633 47.5 89.0633C47.9413 89.0633 48.3771 88.9649 48.7756 88.7753C49.1742 88.5856 49.5254 88.3095 49.8037 87.967L88.3975 40.467C88.7575 40.0238 88.982 39.4861 89.0441 38.9185C89.1063 38.3509 89.0034 37.7774 88.7478 37.2667L76.8728 13.5167C76.6264 13.0237 76.2477 12.6089 75.7789 12.319C75.3102 12.029 74.7699 11.8753 74.2188 11.875H20.7812ZM13.7097 35.625L22.6159 17.8125H34.7908L30.3377 35.625H13.7097ZM15.1436 41.5625H30.4742L40.0544 72.2237L15.1436 41.5625ZM36.6967 41.5625H58.3062L47.5 76.1395L36.6967 41.5625ZM64.5258 41.5625H79.8594L54.9486 72.2237L64.5258 41.5625ZM81.2903 35.625H64.6623L60.2092 17.8125H72.3841L81.2903 35.625ZM58.5408 35.625H36.4592L40.9123 17.8125H54.0877L58.5408 35.625Z" fill="#5B438B"/>
</svg>
