<svg width="102" height="102" viewBox="0 0 102 102" fill="none" xmlns="http://www.w3.org/2000/svg">
<path d="M30.2812 27.0938C29.4359 27.0938 28.6251 27.4296 28.0273 28.0273C27.4296 28.6251 27.0938 29.4359 27.0938 30.2812C27.0938 31.1266 27.4296 31.9374 28.0273 32.5352C28.6251 33.1329 29.4359 33.4688 30.2812 33.4688C31.1266 33.4688 31.9374 33.1329 32.5352 32.5352C33.1329 31.9374 33.4688 31.1266 33.4688 30.2812C33.4688 29.4359 33.1329 28.6251 32.5352 28.0273C31.9374 27.4296 31.1266 27.0938 30.2812 27.0938Z" fill="#F8F8F8"/>
<path fill-rule="evenodd" clip-rule="evenodd" d="M12.75 22.3125C12.75 19.7764 13.7575 17.3441 15.5508 15.5508C17.3441 13.7575 19.7764 12.75 22.3125 12.75H38.25C40.7861 12.75 43.2184 13.7575 45.0117 15.5508C46.805 17.3441 47.8125 19.7764 47.8125 22.3125V38.25C47.8125 40.7861 46.805 43.2184 45.0117 45.0117C43.2184 46.805 40.7861 47.8125 38.25 47.8125H22.3125C19.7764 47.8125 17.3441 46.805 15.5508 45.0117C13.7575 43.2184 12.75 40.7861 12.75 38.25V22.3125ZM22.3125 22.3125H38.25V38.25H22.3125V22.3125Z" fill="#F8F8F8"/>
<path d="M27.0938 71.7188C27.0938 70.8734 27.4296 70.0626 28.0273 69.4648C28.6251 68.8671 29.4359 68.5312 30.2812 68.5312C31.1266 68.5312 31.9374 68.8671 32.5352 69.4648C33.1329 70.0626 33.4688 70.8734 33.4688 71.7188C33.4688 72.5641 33.1329 73.3749 32.5352 73.9727C31.9374 74.5704 31.1266 74.9062 30.2812 74.9062C29.4359 74.9062 28.6251 74.5704 28.0273 73.9727C27.4296 73.3749 27.0938 72.5641 27.0938 71.7188Z" fill="#F8F8F8"/>
<path fill-rule="evenodd" clip-rule="evenodd" d="M12.75 63.75C12.75 61.2139 13.7575 58.7816 15.5508 56.9883C17.3441 55.195 19.7764 54.1875 22.3125 54.1875H38.25C40.7861 54.1875 43.2184 55.195 45.0117 56.9883C46.805 58.7816 47.8125 61.2139 47.8125 63.75V79.6875C47.8125 82.2236 46.805 84.6559 45.0117 86.4492C43.2184 88.2425 40.7861 89.25 38.25 89.25H22.3125C19.7764 89.25 17.3441 88.2425 15.5508 86.4492C13.7575 84.6559 12.75 82.2236 12.75 79.6875V63.75ZM22.3125 79.6875V63.75H38.25V79.6875H22.3125Z" fill="#F8F8F8"/>
<path d="M71.7188 27.0938C70.8734 27.0938 70.0626 27.4296 69.4648 28.0273C68.8671 28.6251 68.5312 29.4359 68.5312 30.2812C68.5312 31.1266 68.8671 31.9374 69.4648 32.5352C70.0626 33.1329 70.8734 33.4688 71.7188 33.4688C72.5641 33.4688 73.3749 33.1329 73.9727 32.5352C74.5704 31.9374 74.9062 31.1266 74.9062 30.2812C74.9062 29.4359 74.5704 28.6251 73.9727 28.0273C73.3749 27.4296 72.5641 27.0938 71.7188 27.0938Z" fill="#F8F8F8"/>
<path fill-rule="evenodd" clip-rule="evenodd" d="M63.75 12.75C61.2139 12.75 58.7816 13.7575 56.9883 15.5508C55.195 17.3441 54.1875 19.7764 54.1875 22.3125V38.25C54.1875 40.7861 55.195 43.2184 56.9883 45.0117C58.7816 46.805 61.2139 47.8125 63.75 47.8125H79.6875C82.2236 47.8125 84.6559 46.805 86.4492 45.0117C88.2425 43.2184 89.25 40.7861 89.25 38.25V22.3125C89.25 19.7764 88.2425 17.3441 86.4492 15.5508C84.6559 13.7575 82.2236 12.75 79.6875 12.75H63.75ZM79.6875 22.3125H63.75V38.25H79.6875V22.3125Z" fill="#F8F8F8"/>
<path d="M54.1873 60.0334C54.1614 59.2499 54.2934 58.4692 54.5753 57.7377C54.8573 57.0062 55.2835 56.3389 55.8286 55.7755C56.3737 55.2121 57.0266 54.7641 57.7483 54.4582C58.4701 54.1522 59.246 53.9945 60.03 53.9945C60.8139 53.9945 61.5898 54.1522 62.3116 54.4582C63.0334 54.7641 63.6862 55.2121 64.2313 55.7755C64.7764 56.3389 65.2026 57.0062 65.4846 57.7377C65.7666 58.4692 65.8985 59.2499 65.8726 60.0334C65.8226 61.5496 65.185 62.9869 64.0948 64.0417C63.0046 65.0966 61.547 65.6863 60.03 65.6863C58.513 65.6863 57.0554 65.0966 55.9651 64.0417C54.8749 62.9869 54.2374 61.5496 54.1873 60.0334ZM54.1873 83.4042C54.1614 82.6206 54.2934 81.8399 54.5753 81.1085C54.8573 80.377 55.2835 79.7097 55.8286 79.1463C56.3737 78.5829 57.0266 78.1349 57.7483 77.8289C58.4701 77.5229 59.246 77.3653 60.03 77.3653C60.8139 77.3653 61.5898 77.5229 62.3116 77.8289C63.0334 78.1349 63.6862 78.5829 64.2313 79.1463C64.7764 79.7097 65.2026 80.377 65.4846 81.1085C65.7666 81.8399 65.8985 82.6206 65.8726 83.4042C65.8226 84.9203 65.185 86.3577 64.0948 87.4125C63.0046 88.4673 61.547 89.057 60.03 89.057C58.513 89.057 57.0554 88.4673 55.9651 87.4125C54.8749 86.3577 54.2374 84.9203 54.1873 83.4042ZM83.4039 54.1875C82.6204 54.1616 81.8397 54.2936 81.1082 54.5756C80.3767 54.8576 79.7094 55.2838 79.146 55.8289C78.5826 56.374 78.1346 57.0268 77.8286 57.7486C77.5227 58.4703 77.365 59.2463 77.365 60.0302C77.365 60.8142 77.5227 61.5901 77.8286 62.3119C78.1346 63.0336 78.5826 63.6865 79.146 64.2316C79.7094 64.7767 80.3767 65.2029 81.1082 65.4848C81.8397 65.7668 82.6204 65.8988 83.4039 65.8729C84.9201 65.8228 86.3574 65.1853 87.4122 64.0951C88.467 63.0048 89.0567 61.5472 89.0567 60.0302C89.0567 58.5132 88.467 57.0556 87.4122 55.9654C86.3574 54.8751 84.9201 54.2376 83.4039 54.1875ZM77.558 83.4105C77.5321 82.627 77.6641 81.8463 77.9461 81.1148C78.228 80.3834 78.6543 79.7161 79.1994 79.1527C79.7445 78.5893 80.3973 78.1412 81.1191 77.8353C81.8408 77.5293 82.6168 77.3716 83.4007 77.3716C84.1847 77.3716 84.9606 77.5293 85.6823 77.8353C86.4041 78.1412 87.057 78.5893 87.6021 79.1527C88.1472 79.7161 88.5734 80.3834 88.8553 81.1148C89.1373 81.8463 89.2693 82.627 89.2434 83.4105C89.1933 84.9267 88.5558 86.364 87.4655 87.4189C86.3753 88.4737 84.9177 89.0634 83.4007 89.0634C81.8837 89.0634 80.4261 88.4737 79.3359 87.4189C78.2456 86.364 77.6081 84.9267 77.558 83.4105ZM71.7185 65.8729C70.935 65.847 70.1543 65.979 69.4228 66.261C68.6913 66.5429 68.0241 66.9691 67.4607 67.5142C66.8973 68.0593 66.4492 68.7122 66.1433 69.434C65.8373 70.1557 65.6796 70.9317 65.6796 71.7156C65.6796 72.4995 65.8373 73.2755 66.1433 73.9972C66.4492 74.719 66.8973 75.3718 67.4607 75.9169C68.0241 76.462 68.6913 76.8883 69.4228 77.1702C70.1543 77.4522 70.935 77.5842 71.7185 77.5583C73.2347 77.5082 74.672 76.8707 75.7268 75.7804C76.7817 74.6902 77.3714 73.2326 77.3714 71.7156C77.3714 70.1986 76.7817 68.741 75.7268 67.6507C74.672 66.5605 73.2347 65.923 71.7185 65.8729Z" fill="#F8F8F8"/>
</svg>
