<svg width="99" height="99" viewBox="0 0 99 99" fill="none" xmlns="http://www.w3.org/2000/svg">
<path d="M37.125 90.75C39.4032 90.75 41.25 88.9032 41.25 86.625C41.25 84.3468 39.4032 82.5 37.125 82.5C34.8468 82.5 33 84.3468 33 86.625C33 88.9032 34.8468 90.75 37.125 90.75Z" stroke="#5B438B" stroke-width="8.25" stroke-linecap="round" stroke-linejoin="round"/>
<path d="M82.5 90.75C84.7782 90.75 86.625 88.9032 86.625 86.625C86.625 84.3468 84.7782 82.5 82.5 82.5C80.2218 82.5 78.375 84.3468 78.375 86.625C78.375 88.9032 80.2218 90.75 82.5 90.75Z" stroke="#5B438B" stroke-width="8.25" stroke-linecap="round" stroke-linejoin="round"/>
<path d="M4.125 4.125H20.625L31.68 59.3588C32.0572 61.2579 33.0904 62.9638 34.5986 64.178C36.1069 65.3921 37.9941 66.0371 39.93 66H80.025C81.9609 66.0371 83.8481 65.3921 85.3564 64.178C86.8646 62.9638 87.8978 61.2579 88.275 59.3588L94.875 24.75H24.75" stroke="#5B438B" stroke-width="8.25" stroke-linecap="round" stroke-linejoin="round"/>
</svg>
